<svg width="14" height="15" viewBox="0 0 14 15" fill="none" xmlns="http://www.w3.org/2000/svg">
<g clip-path="url(#clip0_1302_1213)">
<path d="M8.75 7.11671L7 7.11671M7 7.11671L5.25 7.11671M7 7.11671L7 5.3667M7 7.11671L7 8.8667" stroke="#6B7280" stroke-linecap="round"/>
<path d="M12.8333 7.11666C12.8333 9.86652 12.8333 11.2414 11.9791 12.0957C11.1248 12.95 9.74985 12.95 6.99999 12.95C4.25013 12.95 2.8752 12.95 2.02093 12.0957C1.16666 11.2414 1.16666 9.86652 1.16666 7.11666C1.16666 4.3668 1.16666 2.99187 2.02093 2.1376C2.8752 1.28333 4.25013 1.28333 6.99999 1.28333C9.74985 1.28333 11.1248 1.28333 11.9791 2.1376C12.5471 2.70561 12.7374 3.50381 12.8012 4.78333" stroke="#6B7280" stroke-linecap="round"/>
</g>
<defs>
<clipPath id="clip0_1302_1213">
<rect width="14" height="14" fill="white" transform="translate(0 0.116699)"/>
</clipPath>
</defs>
</svg>
