<svg width="35" height="38" viewBox="0 0 35 38" fill="none" xmlns="http://www.w3.org/2000/svg">
<g clip-path="url(#clip0_1698_657)">
<path d="M3.36523 18.1986V26.3872C3.36523 31.4652 3.36523 34.0042 4.51816 35.1137C5.06801 35.6428 5.76207 35.9752 6.50142 36.0635C8.05167 36.2488 9.86205 34.5768 13.4827 31.2329C15.0832 29.7548 15.8834 29.0158 16.8093 28.821C17.2652 28.7252 17.7345 28.7252 18.1904 28.821C19.1163 29.0158 19.9165 29.7548 21.517 31.2329C25.1377 34.5768 26.948 36.2488 28.4983 36.0635C29.2376 35.9752 29.9317 35.6428 30.4815 35.1137C31.6345 34.0042 31.6345 31.4652 31.6345 26.3872V18.1986C31.6345 11.1658 31.6345 7.64942 29.5645 5.4646C27.4945 3.27979 24.163 3.27979 17.4998 3.27979C10.8367 3.27979 7.50517 3.27979 5.4352 5.4646C4.16745 6.80269 3.67613 8.64025 3.48572 11.4792" stroke="#6B7280" stroke-width="1.5" stroke-linecap="round"/>
<path d="M22.2114 9.83923H12.7883" stroke="#6B7280" stroke-width="1.5" stroke-linecap="round"/>
</g>
<defs>
<clipPath id="clip0_1698_657">
<rect width="35" height="38" fill="white"/>
</clipPath>
</defs>
</svg>
