<svg width="29" height="29" viewBox="0 0 29 29" fill="none" xmlns="http://www.w3.org/2000/svg">
<path d="M8.18554 11.3441C8.13104 12.7818 8.4949 15.2234 10.9441 17.6727C11.535 18.2635 12.1254 18.733 12.7014 19.1046M9.3393 9.08679C10.3888 8.03724 12.0634 8.17826 12.7298 9.37231L13.2188 10.2485C13.6601 11.0393 13.4829 12.0766 12.7879 12.7717C12.7879 12.7717 12.7879 12.7717 12.7879 12.7717C12.7878 12.7718 11.9449 13.6149 13.4734 15.1434C15.0012 16.6712 15.8443 15.8297 15.8451 15.8289C15.8451 15.8289 15.8451 15.8289 15.8451 15.8289C16.5402 15.1338 17.5775 14.9567 18.3682 15.398L19.2445 15.887C20.4385 16.5534 20.5795 18.2279 19.53 19.2775C18.8993 19.9081 18.1267 20.3989 17.2727 20.4312C16.6593 20.4545 15.8633 20.4016 14.9619 20.1431" stroke="#A78BFA" stroke-width="1.5" stroke-linecap="round"/>
<circle cx="14.5" cy="14.1167" r="13.5" stroke="#A78BFA"/>
</svg>
