<svg width="31" height="31" viewBox="0 0 31 31" fill="none" xmlns="http://www.w3.org/2000/svg">
<circle cx="15.5" cy="15.5" r="15.5" fill="#A78BFA"/>
<path d="M9.042 22.178C8.786 22.2727 8.54833 22.2447 8.329 22.094C8.10967 21.9433 8 21.731 8 21.457V9.227C8 9.04833 8.04333 8.88533 8.13 8.738C8.21667 8.59067 8.34267 8.48833 8.508 8.431L12.466 7.086C12.644 7.02867 12.822 7 13 7C13.178 7 13.3563 7.02867 13.535 7.086L19 9L22.958 7.47C23.214 7.37467 23.4517 7.39267 23.671 7.524C23.8903 7.65533 24 7.85133 24 8.112V14.325C24 14.467 23.952 14.5857 23.856 14.681C23.76 14.7763 23.641 14.8243 23.499 14.825C23.357 14.8257 23.2383 14.7777 23.143 14.681C23.0477 14.5843 23 14.4657 23 14.325V8.523L19.5 9.828V12.712C19.5 12.8533 19.452 12.972 19.356 13.068C19.26 13.164 19.141 13.212 18.999 13.212C18.857 13.212 18.7383 13.164 18.643 13.068C18.5477 12.972 18.5 12.8533 18.5 12.712V9.827L13.5 8.081V19.625C13.5 19.881 13.4283 20.11 13.285 20.312C13.1423 20.5133 12.955 20.6613 12.723 20.756L9.042 22.178ZM9 21.123L12.5 19.781V8.081L9 9.273V21.123ZM19.887 21.034C20.5417 21.034 21.0887 20.8193 21.528 20.39C21.9673 19.9607 22.1887 19.4063 22.192 18.727C22.196 18.0703 21.9767 17.5217 21.534 17.081C21.0907 16.6397 20.5417 16.419 19.887 16.419C19.233 16.419 18.6843 16.6403 18.241 17.083C17.7977 17.5257 17.5763 18.0747 17.577 18.73C17.5777 19.3853 17.799 19.933 18.241 20.373C18.683 20.813 19.2317 21.0327 19.887 21.034ZM19.885 22.035C18.975 22.035 18.1963 21.7113 17.549 21.064C16.901 20.4167 16.577 19.6383 16.577 18.729C16.577 17.8197 16.9007 17.0407 17.548 16.392C18.1953 15.7433 18.9737 15.419 19.883 15.419C20.7923 15.419 21.571 15.743 22.219 16.391C22.867 17.039 23.1913 17.8177 23.192 18.727C23.192 19.0963 23.1367 19.4457 23.026 19.775C22.9147 20.1043 22.7547 20.4063 22.546 20.681L24.646 22.781C24.7393 22.8743 24.7893 22.989 24.796 23.125C24.8027 23.261 24.7593 23.379 24.666 23.479C24.5727 23.579 24.4543 23.6257 24.311 23.619C24.1677 23.6123 24.05 23.5623 23.958 23.469L21.858 21.369C21.5833 21.591 21.2817 21.7577 20.953 21.869C20.6237 21.979 20.2673 22.034 19.884 22.034" fill="white"/>
</svg>
