<svg width="28" height="27" viewBox="0 0 28 27" fill="none" xmlns="http://www.w3.org/2000/svg">
<ellipse cx="14.0001" cy="13.909" rx="13.0909" ry="13.0909" fill="white" fill-opacity="0.75"/>
<path d="M14.8015 13.9114L19.3233 9.38955C19.4127 9.2852 19.4594 9.15098 19.4541 9.0137C19.4488 8.87642 19.3919 8.7462 19.2947 8.64906C19.1976 8.55192 19.0674 8.49501 18.9301 8.48971C18.7928 8.4844 18.6586 8.5311 18.5543 8.62046L14.0324 13.1423L9.51062 8.615C9.4079 8.51229 9.2686 8.45459 9.12334 8.45459C8.97809 8.45459 8.83878 8.51229 8.73607 8.615C8.63336 8.71771 8.57566 8.85702 8.57566 9.00228C8.57566 9.14753 8.63336 9.28684 8.73607 9.38955L13.2633 13.9114L8.73607 18.4332C8.67897 18.4821 8.6326 18.5423 8.59986 18.6099C8.56712 18.6776 8.54872 18.7513 8.54582 18.8264C8.54292 18.9015 8.55557 18.9765 8.583 19.0465C8.61042 19.1164 8.65201 19.18 8.70517 19.2332C8.75833 19.2863 8.8219 19.3279 8.89189 19.3553C8.96189 19.3828 9.0368 19.3954 9.11192 19.3925C9.18704 19.3896 9.26075 19.3712 9.32842 19.3385C9.39609 19.3057 9.45626 19.2594 9.50516 19.2023L14.0324 14.6805L18.5543 19.2023C18.6586 19.2916 18.7928 19.3383 18.9301 19.333C19.0674 19.3277 19.1976 19.2708 19.2947 19.1737C19.3919 19.0765 19.4488 18.9463 19.4541 18.809C19.4594 18.6718 19.4127 18.5375 19.3233 18.4332L14.8015 13.9114Z" fill="#6B7280"/>
</svg>
