<svg width="57" height="36" viewBox="0 0 57 36" fill="none" xmlns="http://www.w3.org/2000/svg">
<path fill-rule="evenodd" clip-rule="evenodd" d="M44.6904 15.4432C44.9409 14.5059 45.0735 13.5277 45.0735 12.5217C45.0735 5.60617 38.8045 0 31.0713 0C23.9406 0 18.0549 4.76664 17.181 10.9312C16.6254 10.8822 16.0609 10.8571 15.4891 10.8571C10.0712 10.8571 5.30306 13.1148 2.53485 16.5343C2.56377 16.512 2.59418 16.4912 2.62607 16.4718C3.03046 16.2263 3.49181 16.1646 3.80372 16.1418C4.05864 16.1232 4.33375 16.1259 4.52978 16.1278C4.58118 16.1283 4.62714 16.1288 4.66587 16.1288C5.07554 16.1288 5.42767 16.3751 5.58221 16.7278C5.75012 16.6001 5.9596 16.5244 6.18677 16.5244C6.75255 16.5244 7.21595 16.7922 7.44647 16.9255L7.46752 16.9376L7.52327 16.9698C7.63307 17.0333 7.69807 17.0709 7.76294 17.1015C7.79124 17.1148 7.80838 17.1212 7.81614 17.1238C8.33917 17.1808 8.7267 17.6332 8.70696 18.1549C8.76225 18.1212 8.82165 18.0924 8.88478 18.0693C9.36026 17.8952 9.88255 18.1048 10.1125 18.5405C10.1509 18.5751 10.2137 18.624 10.3023 18.6833C10.4938 18.8114 10.7188 18.9309 10.8577 18.9979C11.3552 19.2377 11.5641 19.8355 11.3243 20.333C11.0844 20.8304 10.4867 21.0393 9.9892 20.7995C9.79703 20.7068 9.48347 20.5419 9.18967 20.3452C9.04343 20.2473 8.88007 20.127 8.73386 19.9897C8.60699 19.8706 8.40019 19.6546 8.28945 19.3521C8.24343 19.2264 8.22423 19.0974 8.22894 18.9714C8.05184 19.0797 7.83959 19.1341 7.61693 19.1138C7.3291 19.0876 7.08662 18.9938 6.90961 18.9103C6.76208 18.8407 6.61547 18.7556 6.51232 18.6957L6.46859 18.6703C6.27056 18.5562 6.19846 18.5309 6.18334 18.5256L6.18021 18.5244C5.77335 18.5218 5.42414 18.2762 5.27042 17.9254C5.10252 18.053 4.89304 18.1288 4.66587 18.1288C4.59057 18.1288 4.52018 18.1282 4.45312 18.1276H4.45294C4.27097 18.1259 4.11356 18.1245 3.94927 18.1365C3.76526 18.1499 3.68495 18.1757 3.66627 18.1817C3.66112 18.1833 3.66065 18.1835 3.66397 18.1814C3.19188 18.4681 2.57682 18.3177 2.29022 17.8456C2.1158 17.5583 2.10321 17.218 2.22648 16.9311C0.813321 18.8272 0 21.0508 0 23.4285C0 30.2031 6.60241 35.7262 14.8696 35.9901V36H45.2283V35.9539C46.5085 35.8583 47.7348 35.616 48.8798 35.2486C48.7979 35.2451 48.7271 35.2429 48.6619 35.2429C48.1096 35.2429 47.6619 34.7952 47.6619 34.2429C47.6619 33.6907 48.1096 33.2429 48.6619 33.2429C48.8187 33.2429 48.983 33.2509 49.1236 33.2577L49.1371 33.2583C49.2898 33.2657 49.4231 33.2719 49.5514 33.2726C49.828 33.2741 49.9571 33.2458 50.0061 33.2249C50.5137 33.0073 51.1016 33.2425 51.3191 33.7501C51.3778 33.887 51.4035 34.0298 51.3999 34.1695C54.7842 32.3123 57 29.2178 57 25.7142C57 20.2195 51.55 15.7312 44.6904 15.4432ZM25.8204 18.7826C25.8204 20.5114 24.2532 21.913 22.3199 21.913C20.3866 21.913 18.8193 20.5114 18.8193 18.7826C18.8193 17.0537 20.3866 15.6521 22.3199 15.6521C24.2532 15.6521 25.8204 17.0537 25.8204 18.7826ZM36.3221 21.913C38.2554 21.913 39.8226 20.5114 39.8226 18.7826C39.8226 17.0537 38.2554 15.6521 36.3221 15.6521C34.3888 15.6521 32.8215 17.0537 32.8215 18.7826C32.8215 20.5114 34.3888 21.913 36.3221 21.913ZM45.5117 33.3418C45.2361 33.3418 44.9865 33.4533 44.8056 33.6337C44.6247 33.4533 44.3751 33.3418 44.0995 33.3418C43.9838 33.3418 43.8648 33.3463 43.7662 33.35L43.7331 33.3512C43.6201 33.3554 43.529 33.3581 43.4446 33.3569C43.2687 33.3544 43.2127 33.3337 43.2104 33.3328L43.2103 33.3328C42.7128 33.1063 42.1269 33.3213 41.893 33.813C41.7564 33.4234 41.3854 33.1441 40.9491 33.1441C40.7682 33.1441 40.5839 33.1256 40.3428 33.1001L40.3199 33.0977L40.3199 33.0977L40.3198 33.0977C40.099 33.0743 39.8233 33.0451 39.5369 33.0451C39.2405 33.0451 38.9742 33.1741 38.7911 33.3789C38.6231 33.0627 38.2904 32.8473 37.9073 32.8473C37.7333 32.8473 37.5534 32.8169 37.2723 32.765L37.2438 32.7597C36.9924 32.7132 36.6478 32.6494 36.2778 32.6494C35.7255 32.6494 35.2778 33.0971 35.2778 33.6494C35.2778 34.2017 35.7255 34.6494 36.2778 34.6494C36.449 34.6494 36.6269 34.6796 36.9092 34.7317L36.9349 34.7365L36.935 34.7365C37.1878 34.7832 37.534 34.8473 37.9073 34.8473C38.2037 34.8473 38.47 34.7183 38.6531 34.5135C38.821 34.8298 39.1538 35.0451 39.5369 35.0451C39.7098 35.0451 39.8891 35.0633 40.1325 35.0891L40.1464 35.0905H40.1465L40.1465 35.0905C40.3711 35.1143 40.6526 35.1441 40.9491 35.1441C41.3475 35.1441 41.6915 34.911 41.8523 34.5739C41.9393 34.8219 42.1234 35.0355 42.3815 35.153C42.7596 35.3251 43.1452 35.3528 43.4158 35.3567C43.5571 35.3587 43.6946 35.354 43.8068 35.3498L43.8367 35.3487L43.8369 35.3487L43.838 35.3487C43.9432 35.3448 44.0237 35.3418 44.0995 35.3418C44.3751 35.3418 44.6247 35.2303 44.8056 35.0499C44.9865 35.2303 45.2361 35.3418 45.5117 35.3418H46.598C47.1503 35.3418 47.598 34.894 47.598 34.3418C47.598 33.7895 47.1503 33.3418 46.598 33.3418H45.5117ZM30.9413 30.3252L30.9597 30.3142C31.2026 30.1688 31.568 29.9689 31.9706 29.8956C32.5139 29.7966 33.0346 30.1568 33.1336 30.7002C33.1851 30.9828 33.1123 31.2593 32.9541 31.4735C33.0657 31.4908 33.1762 31.5273 33.281 31.5846C33.454 31.6791 33.6413 31.751 33.8833 31.8338C33.9239 31.8477 33.9675 31.8624 34.0135 31.8778L34.0146 31.8782L34.0146 31.8782L34.0146 31.8782L34.0147 31.8782L34.0147 31.8782L34.0147 31.8783C34.22 31.9472 34.4723 32.0319 34.7163 32.1365C35.2239 32.354 35.4591 32.9419 35.2415 33.4496C35.024 33.9572 34.4361 34.1924 33.9285 33.9748C33.7656 33.905 33.6089 33.8522 33.4117 33.7858L33.409 33.7848L33.4057 33.7837C33.3523 33.7657 33.2959 33.7467 33.2356 33.7261C32.9693 33.6349 32.6499 33.5188 32.322 33.3397C32.0792 33.207 31.9133 32.9883 31.8415 32.7421C31.7346 32.7679 31.6216 32.7764 31.5059 32.7647C31.2786 32.7417 31.0275 32.6584 30.8198 32.5716C30.4951 32.5627 30.1814 32.3961 29.9975 32.1007C30.033 32.6438 29.6266 33.1171 29.0821 33.1622C28.851 33.1813 28.6399 33.2106 28.4012 33.2438C28.3245 33.2544 28.245 33.2655 28.1611 33.2767C27.8307 33.3209 27.459 33.3634 27.0442 33.3634C26.6719 33.3634 26.3472 33.16 26.175 32.8583C26.0028 33.1599 25.6781 33.3632 25.306 33.3632C25.2267 33.3632 25.1414 33.3648 25.051 33.3665C24.4367 33.3779 23.5858 33.3938 22.7625 32.9439C22.5891 32.8492 22.4549 32.7106 22.3662 32.5495C22.0808 32.6108 21.7711 32.5471 21.5265 32.3491C21.4402 32.2793 21.3166 32.2138 21.089 32.1206C21.0531 32.1059 21.0117 32.0894 20.966 32.0713C20.7722 31.9944 20.503 31.8876 20.2639 31.7569C19.7793 31.4921 19.601 30.8845 19.8659 30.3999C20.1307 29.9152 20.7382 29.737 21.2229 30.0018C21.3448 30.0684 21.4631 30.1157 21.6361 30.1847L21.6365 30.1849C21.6988 30.2098 21.7682 30.2375 21.8475 30.27C22.1079 30.3767 22.4597 30.5315 22.7848 30.7946C22.8884 30.8785 22.9709 30.9788 23.0315 31.0888C23.2579 31.0399 23.5022 31.0691 23.7214 31.1888C24.0524 31.3697 24.337 31.368 24.9804 31.3644H24.9806H24.9809H24.9812H24.9815C25.0807 31.3638 25.1883 31.3632 25.306 31.3632C25.6782 31.3632 26.003 31.5666 26.1751 31.8683C26.3473 31.5667 26.672 31.3634 27.0442 31.3634C27.3244 31.3634 27.5917 31.3351 27.8959 31.2944C27.9581 31.286 28.0236 31.2769 28.0918 31.2674L28.092 31.2674L28.0921 31.2674C28.3408 31.2327 28.6252 31.1931 28.9171 31.169C29.1875 31.1466 29.4417 31.234 29.6357 31.394C29.6254 31.3079 29.6266 31.2214 29.6385 31.1367C29.3072 31.2455 28.9283 31.1777 28.6521 30.9261C28.2749 30.5827 27.7974 30.08 27.6006 29.3633C27.4972 28.9867 27.6236 28.6013 27.8948 28.3561C27.5497 28.2293 27.2878 27.9163 27.245 27.5261C27.2388 27.4696 27.2323 27.4119 27.2256 27.3531L27.2256 27.3531C27.1808 26.9566 27.1304 26.5097 27.1304 26.032C27.1304 25.4797 27.5781 25.032 28.1304 25.032C28.166 25.032 28.2013 25.0339 28.236 25.0375C28.1353 24.8584 28.0887 24.6467 28.1155 24.4271C28.174 23.9479 28.4674 23.6371 28.6849 23.4683C28.9047 23.2977 29.1507 23.1882 29.3459 23.1164C29.7415 22.971 30.1619 22.8987 30.3703 22.867C30.9164 22.7842 31.4262 23.1596 31.5091 23.7057C31.5919 24.2517 31.2165 24.7615 30.6704 24.8444C30.4948 24.871 30.2365 24.9199 30.0358 24.9937C30.0211 24.9991 30.0078 25.0042 29.9959 25.009C29.8114 25.3644 29.4227 25.5873 29.0026 25.5426C29.084 25.6873 29.1304 25.8542 29.1304 26.032C29.1304 26.3893 29.1671 26.7174 29.2122 27.1207L29.233 27.3078C29.2695 27.6397 29.1391 27.9515 28.9089 28.1595C29.2019 28.2671 29.4403 28.5099 29.5293 28.8339C29.5711 28.9863 29.6944 29.1703 29.9987 29.4474C30.2522 29.6782 30.3597 30.0095 30.3158 30.3253C30.5231 30.2567 30.7422 30.2598 30.9413 30.3252ZM31.9324 23.5473C32.0481 23.0073 32.5796 22.6633 33.1197 22.779C33.1794 22.7918 33.2408 22.8045 33.3035 22.8176L33.3048 22.8178L33.3054 22.8179C33.731 22.9062 34.2215 23.0078 34.7368 23.2424C35.2394 23.4713 35.4613 24.0643 35.2325 24.5669C35.0036 25.0696 34.4106 25.2915 33.908 25.0626C33.6087 24.9264 33.3477 24.8713 32.912 24.7795L32.7994 24.7557L32.7006 24.7346C32.1606 24.6189 31.8166 24.0873 31.9324 23.5473ZM36.5173 25.8343C36.5173 25.282 36.0696 24.8343 35.5173 24.8343C34.965 24.8343 34.5173 25.282 34.5173 25.8343C34.5173 26.0106 34.5347 26.1764 34.5503 26.3054C34.5572 26.3628 34.5633 26.4096 34.5686 26.4513C34.5774 26.5194 34.5845 26.574 34.5907 26.6388C34.6031 26.7661 34.5976 26.8183 34.5963 26.8298C34.4539 27.1664 34.5099 27.5384 34.713 27.8137C34.5082 27.8452 34.3113 27.9404 34.1544 28.0991C33.9757 28.28 33.8598 28.4777 33.806 28.5695L33.7934 28.5909C33.7682 28.6334 33.7539 28.6554 33.7475 28.665C33.731 28.6782 33.6995 28.7002 33.6172 28.7533L33.6034 28.7622C33.5168 28.818 33.3625 28.9173 33.2146 29.052C32.8063 29.4238 32.7767 30.0563 33.1486 30.4646C33.5204 30.873 34.1529 30.9025 34.5612 30.5307C34.5753 30.5178 34.5986 30.5003 34.7018 30.4337L34.7156 30.4248C34.8023 30.369 34.9565 30.2696 35.1044 30.135C35.3189 29.9396 35.4453 29.7263 35.5085 29.6198L35.5134 29.6116C35.5611 29.5311 35.5778 29.5059 35.581 29.5008C35.9285 29.1451 35.9574 28.5956 35.6699 28.2076C35.9961 28.157 36.2903 27.946 36.4329 27.6214C36.632 27.168 36.608 26.721 36.5814 26.4461C36.5655 26.282 36.5512 26.1772 36.5401 26.0963V26.0963C36.5261 25.9945 36.5173 25.9306 36.5173 25.8343ZM18.6552 28.145C18.1831 27.8584 17.568 28.0088 17.2814 28.4809C16.9948 28.953 17.1452 29.568 17.6173 29.8546L17.6161 29.8539C17.6158 29.8537 17.6163 29.8541 17.6179 29.8553C17.6243 29.86 17.6477 29.8771 17.6969 29.9175L17.7402 29.9536L17.7573 29.9679C17.8096 30.0116 17.8799 30.0705 17.9241 30.1062C18.0118 30.1772 18.1278 30.2671 18.2577 30.3474C18.3807 30.4234 18.5713 30.5258 18.8069 30.5735C19.3483 30.683 19.8759 30.333 19.9854 29.7917C20.0888 29.2808 19.7828 28.7821 19.293 28.6356C19.2693 28.6196 19.2339 28.5933 19.1824 28.5516L19.1515 28.5264L19.128 28.507L19.083 28.4693L19.0669 28.4558C19.036 28.4299 19.001 28.4005 18.9669 28.3725C18.8935 28.3122 18.7801 28.2209 18.6552 28.145ZM19.3183 28.6513C19.3184 28.6514 19.3167 28.6506 19.3132 28.6485C19.3166 28.6502 19.3183 28.6512 19.3183 28.6513ZM14.6568 26.1362C14.3629 26.1671 14.0582 26.0681 13.8358 25.8402C13.693 25.6939 13.5771 25.529 13.4949 25.4065C13.4513 25.3415 13.4087 25.2754 13.3714 25.2174L13.37 25.2152C13.3315 25.1554 13.2979 25.1033 13.2644 25.053C13.1943 24.9478 13.1456 24.8834 13.1096 24.8436L13.1038 24.8373C12.6406 24.5913 12.4434 24.0239 12.6636 23.5402C12.6914 23.4793 12.7244 23.4226 12.762 23.3702C12.4832 23.3861 12.1993 23.2859 11.9889 23.0704C11.8608 22.9391 11.6747 22.7401 11.5011 22.5269C11.3531 22.3451 11.121 22.043 11.005 21.7263C10.8152 21.2077 11.0817 20.6334 11.6004 20.4435C12.113 20.2559 12.68 20.5141 12.8764 21.0209C12.8796 21.0267 12.889 21.0435 12.9081 21.0722C12.9424 21.124 12.9909 21.1891 13.052 21.2642C13.1743 21.4144 13.3159 21.5666 13.4201 21.6733C13.7647 22.0264 13.7954 22.5692 13.5163 22.956C13.6734 22.9469 13.835 22.9748 13.9881 23.0445C14.2596 23.1681 14.4581 23.3532 14.5916 23.5006C14.7283 23.6514 14.842 23.8138 14.9286 23.9437C14.9711 24.0075 15.0123 24.0714 15.0482 24.1273L15.053 24.1346C15.0917 24.1948 15.1244 24.2455 15.1559 24.2924C15.2238 24.3936 15.257 24.433 15.267 24.4432C15.5842 24.7681 15.6354 25.2539 15.424 25.6307C15.7682 25.5945 16.1161 25.7398 16.33 26.0265C16.3865 26.0646 16.4666 26.1097 16.59 26.1766L16.6221 26.1939C16.7249 26.2493 16.8713 26.3283 16.9942 26.4092C17.0644 26.4554 17.1622 26.5247 17.2564 26.6165C17.3385 26.6965 17.5036 26.8748 17.5797 27.1521C17.7259 27.6847 17.4127 28.235 16.8801 28.3812C16.4843 28.4899 16.0787 28.3448 15.8365 28.0445C15.7918 28.0187 15.7298 27.9852 15.6379 27.9354C15.5217 27.8725 15.3531 27.7811 15.1995 27.6764C15.07 27.5881 14.8152 27.403 14.6525 27.1068C14.4802 26.7929 14.4939 26.4271 14.6568 26.1362ZM16.3029 26.0073C16.2957 26.0018 16.2926 25.999 16.2929 25.999C16.2932 25.9989 16.2968 26.0017 16.3029 26.0073ZM13.0887 24.8224C13.0887 24.8224 13.0895 24.823 13.0909 24.8243L13.0887 24.8224Z" fill="url(#paint0_linear_219_480)"/>
<defs>
<linearGradient id="paint0_linear_219_480" x1="28.5" y1="0" x2="28.5" y2="36" gradientUnits="userSpaceOnUse">
<stop offset="0.03" stop-color="#DEAFD2"/>
<stop offset="0.785" stop-color="#ADA9DB"/>
<stop offset="1" stop-color="#85A4E2"/>
</linearGradient>
</defs>
</svg>
