<svg width="16" height="17" viewBox="0 0 16 17" fill="none" xmlns="http://www.w3.org/2000/svg">
<g clip-path="url(#clip0_1302_1200)">
<path d="M8.33333 4.81098C8.22493 4.79279 8.11357 4.78333 8 4.78333C6.89543 4.78333 6 5.67876 6 6.78333C6 7.8879 6.89543 8.78333 8 8.78333C9.10457 8.78333 10 7.8879 10 6.78333C10 6.66975 9.99053 6.55839 9.97235 6.44999" stroke="#60A5FA" stroke-width="1.5" stroke-linecap="round"/>
<path d="M3.33335 10.2608C2.90171 9.15821 2.66669 7.9843 2.66669 6.87894C2.66669 3.88066 5.0545 1.45007 8.00002 1.45007C10.9455 1.45007 13.3334 3.88066 13.3334 6.87894C13.3334 9.85372 11.6311 13.325 8.97531 14.5664C8.35619 14.8558 7.64385 14.8558 7.02473 14.5664C6.17651 14.1699 5.42556 13.546 4.79627 12.7834" stroke="#60A5FA" stroke-width="1.5" stroke-linecap="round"/>
</g>
<defs>
<clipPath id="clip0_1302_1200">
<rect width="16" height="16" fill="white" transform="translate(0 0.116699)"/>
</clipPath>
</defs>
</svg>
