<svg width="71" height="72" viewBox="0 0 71 72" fill="none" xmlns="http://www.w3.org/2000/svg">
<g filter="url(#filter0_dd_1294_422)">
<circle cx="35.5" cy="32.5" r="32.5" fill="white"/>
</g>
<path d="M21.6088 32.6528C20.421 29.8786 19.7742 26.9248 19.7742 24.1436C19.7742 16.5996 26.3455 10.4839 34.4516 10.4839C42.5577 10.4839 49.129 16.5996 49.129 24.1436C49.129 31.6285 44.4445 40.3628 37.1356 43.4862C35.4318 44.2143 33.4714 44.2143 31.7676 43.4862C29.4333 42.4886 27.3666 40.9187 25.6348 39" stroke="#6B7280" stroke-width="1.5" stroke-linecap="round"/>
<path d="M38.6452 25.1613C38.6452 27.4774 36.7676 29.3549 34.4516 29.3549C32.1356 29.3549 30.2581 27.4774 30.2581 25.1613C30.2581 22.8453 32.1356 20.9678 34.4516 20.9678C36.7676 20.9678 38.6452 22.8453 38.6452 25.1613Z" stroke="#6B7280" stroke-width="1.5"/>
<path d="M53.2398 38.7903C54.6349 40.0535 55.4194 41.4775 55.4194 42.9838C55.4194 44.9235 54.1187 46.7265 51.8885 48.2258M15.6634 38.7903C14.2683 40.0535 13.4839 41.4775 13.4839 42.9838C13.4839 48.1949 22.8715 52.4193 34.4516 52.4193C37.9174 52.4193 41.1868 52.0409 44.067 51.3709" stroke="#6B7280" stroke-width="1.5" stroke-linecap="round"/>
<defs>
<filter id="filter0_dd_1294_422" x="0" y="0" width="71" height="72" filterUnits="userSpaceOnUse" color-interpolation-filters="sRGB">
<feFlood flood-opacity="0" result="BackgroundImageFix"/>
<feColorMatrix in="SourceAlpha" type="matrix" values="0 0 0 0 0 0 0 0 0 0 0 0 0 0 0 0 0 0 127 0" result="hardAlpha"/>
<feMorphology radius="1" operator="erode" in="SourceAlpha" result="effect1_dropShadow_1294_422"/>
<feOffset dy="4"/>
<feGaussianBlur stdDeviation="2"/>
<feComposite in2="hardAlpha" operator="out"/>
<feColorMatrix type="matrix" values="0 0 0 0 0.0470588 0 0 0 0 0.0470588 0 0 0 0 0.0509804 0 0 0 0.05 0"/>
<feBlend mode="normal" in2="BackgroundImageFix" result="effect1_dropShadow_1294_422"/>
<feColorMatrix in="SourceAlpha" type="matrix" values="0 0 0 0 0 0 0 0 0 0 0 0 0 0 0 0 0 0 127 0" result="hardAlpha"/>
<feMorphology radius="1" operator="erode" in="SourceAlpha" result="effect2_dropShadow_1294_422"/>
<feOffset dy="4"/>
<feGaussianBlur stdDeviation="2"/>
<feComposite in2="hardAlpha" operator="out"/>
<feColorMatrix type="matrix" values="0 0 0 0 0.0470588 0 0 0 0 0.0470588 0 0 0 0 0.0509804 0 0 0 0.1 0"/>
<feBlend mode="normal" in2="effect1_dropShadow_1294_422" result="effect2_dropShadow_1294_422"/>
<feBlend mode="normal" in="SourceGraphic" in2="effect2_dropShadow_1294_422" result="shape"/>
</filter>
</defs>
</svg>
