<svg width="14" height="15" viewBox="0 0 14 15" fill="none" xmlns="http://www.w3.org/2000/svg">
<g clip-path="url(#clip0_1302_1214)">
<path fill-rule="evenodd" clip-rule="evenodd" d="M7.00002 12.5126C4.01998 12.5126 1.60419 10.0968 1.60419 7.11674C1.60419 4.1367 4.01998 1.72091 7.00002 1.72091C9.98006 1.72091 12.3959 4.1367 12.3959 7.11674C12.3959 10.0968 9.98006 12.5126 7.00002 12.5126ZM0.729187 7.11674C0.729187 10.58 3.53673 13.3876 7.00002 13.3876C10.4633 13.3876 13.2709 10.58 13.2709 7.11674C13.2709 3.65345 10.4633 0.845907 7.00002 0.845907C3.53673 0.845907 0.729187 3.65345 0.729187 7.11674ZM4.94066 8.3011C5.11152 8.47195 5.38853 8.47195 5.55938 8.3011L7.00002 6.86046L8.44066 8.3011C8.61152 8.47195 8.88853 8.47195 9.05938 8.3011C9.23023 8.13025 9.23023 7.85324 9.05938 7.68238L7.30938 5.93238C7.13853 5.76153 6.86152 5.76153 6.69066 5.93238L4.94066 7.68238C4.76981 7.85324 4.76981 8.13025 4.94066 8.3011Z" fill="#6B7280"/>
</g>
<defs>
<clipPath id="clip0_1302_1214">
<rect width="14" height="14" fill="white" transform="matrix(1 0 0 -1 0 14.1167)"/>
</clipPath>
</defs>
</svg>
