<svg width="29" height="29" viewBox="0 0 29 29" fill="none" xmlns="http://www.w3.org/2000/svg">
<path d="M8.5 13.2555V16.7033C8.5 18.8414 8.5 19.9105 8.9894 20.3776C9.22281 20.6004 9.51743 20.7404 9.83128 20.7776C10.4893 20.8555 11.2578 20.1516 12.7948 18.7436C13.4741 18.1213 13.8138 17.8101 14.2069 17.7281C14.4004 17.6877 14.5996 17.6877 14.7931 17.7281C15.1862 17.8101 15.5259 18.1213 16.2052 18.7436C17.7422 20.1516 18.5107 20.8555 19.1687 20.7776C19.4826 20.7404 19.7772 20.6004 20.0106 20.3776C20.5 19.9105 20.5 18.8414 20.5 16.7033V13.2555C20.5 10.2943 20.5 8.81372 19.6213 7.8938C18.7426 6.97388 17.3284 6.97388 14.5 6.97388C11.6716 6.97388 10.2574 6.97388 9.37868 7.8938C8.84053 8.4572 8.63197 9.23091 8.55115 10.4263" stroke="#A78BFA" stroke-width="1.5" stroke-linecap="round"/>
<path d="M16.5 9.73572H12.5" stroke="#A78BFA" stroke-width="1.5" stroke-linecap="round"/>
<circle cx="14.5" cy="14.1167" r="13.5" stroke="#A78BFA"/>
</svg>
