<svg width="48" height="48" viewBox="0 0 48 48" fill="none" xmlns="http://www.w3.org/2000/svg">
<path d="M24 0.5C36.9787 0.5 47.5 11.0213 47.5 24C47.5 36.9787 36.9787 47.5 24 47.5C11.0213 47.5 0.5 36.9787 0.5 24C0.5 11.0213 11.0213 0.5 24 0.5ZM33.8037 13.9482C33.2626 13.9578 32.6229 14.1089 31.3271 14.5791C30.3484 14.9342 28.9652 15.4835 26.9297 16.3203L24.668 17.2559C22.9138 17.9855 19.8488 19.2992 15.4746 21.1963L10.6641 23.2881C10.0851 23.5192 9.61223 23.7597 9.26758 24.0156C8.97475 24.2331 8.7101 24.5099 8.61328 24.8574L8.58203 25.0107C8.54435 25.312 8.61268 25.5893 8.77441 25.8271C8.92653 26.0508 9.14357 26.2133 9.36426 26.3389C9.6867 26.5223 10.105 26.6728 10.5479 26.8164L10.9971 26.959L11.5176 27.125C12.137 27.3263 12.8669 27.5456 13.5537 27.7178C14.1447 27.866 14.7343 27.9874 15.2002 28.0225L15.3916 28.0322C16.3128 28.0521 17.2817 27.6721 18.2842 26.9844L18.2852 26.9854C21.5533 24.7792 24.0297 23.1197 25.7148 22.0059C26.5575 21.4489 27.2001 21.0294 27.6445 20.7471C27.7503 20.6799 27.8447 20.6212 27.9268 20.5703C27.8681 20.6336 27.805 20.7038 27.7344 20.7773C27.363 21.1643 26.8534 21.6668 26.2842 22.2148C25.7156 22.7623 25.0911 23.3515 24.4932 23.9121L22.8574 25.4375C22.5732 25.7018 22.324 25.9333 22.1338 26.1113L21.7637 26.4648L21.2129 27.0088C20.9341 27.2776 20.645 27.5562 20.415 27.835C20.1863 28.1123 19.9754 28.4374 19.9014 28.8125C19.7568 29.5462 20.1616 30.1837 20.9639 30.792L21.332 31.0508C21.8203 31.3725 22.2596 31.6672 22.6748 31.9473L23.8721 32.7598C24.2993 33.0507 24.7275 33.3413 25.1865 33.6504L26.6895 34.6494C26.8252 34.7384 26.9579 34.8298 27.0898 34.9219L27.4834 35.2002C28.3805 35.8398 29.3588 36.5605 30.5664 36.5479L30.8105 36.5352C31.7478 36.4489 32.4576 35.6275 32.8271 34.0039L32.8965 33.6689C33.6416 29.6858 35.0654 21.324 35.54 17.1465L35.6221 16.3691C35.6498 16.0771 35.631 15.7388 35.6045 15.4971L35.5771 15.293C35.5445 15.1023 35.469 14.7566 35.1904 14.4619L35.0576 14.3389C34.8344 14.1578 34.5723 14.0633 34.3604 14.0127C34.2529 13.987 34.1486 13.9699 34.0537 13.96L33.8037 13.9482Z" fill="#A78BFA" stroke="#A78BFA"/>
</svg>
