<svg width="25" height="19" viewBox="0 0 25 19" fill="none" xmlns="http://www.w3.org/2000/svg">  
  <g transform="scale(-1, 1) translate(-25, 0)">  
    <path d="M24.4245 8.50054C24.6864 8.76111 24.8335 9.11448 24.8335 9.48293C24.8335 9.85137 24.6864 10.2047 24.4245 10.4653L16.5216 18.3258C16.3927 18.4585 16.2386 18.5644 16.0681 18.6372C15.8977 18.71 15.7144 18.7483 15.5289 18.7499C15.3434 18.7516 15.1594 18.7164 14.9877 18.6465C14.8161 18.5767 14.6601 18.4735 14.5289 18.343C14.3977 18.2126 14.294 18.0574 14.2238 17.8866C14.1535 17.7159 14.1182 17.5329 14.1198 17.3484C14.1214 17.1639 14.1599 16.9816 14.2332 16.8121C14.3064 16.6425 14.4128 16.4892 14.5462 16.361L20.0644 10.8724H1.56384C1.19333 10.8724 0.837992 10.726 0.576 10.4655C0.314011 10.2049 0.166828 9.85145 0.166828 9.48293C0.166828 9.1144 0.314011 8.76097 0.576 8.50039C0.837992 8.23981 1.19333 8.09341 1.56384 8.09341H20.0644L14.5462 2.60483C14.2918 2.34276 14.1509 1.99177 14.1541 1.62744C14.1573 1.26311 14.3042 0.914606 14.5632 0.656979C14.8223 0.399353 15.1727 0.253218 15.5389 0.250051C15.9052 0.246885 16.2581 0.38694 16.5216 0.640053L24.4245 8.50054Z" fill="#6B7280"/>  
  </g>  
</svg>  