<svg width="81" height="82" viewBox="0 0 81 82" fill="none" xmlns="http://www.w3.org/2000/svg">
<g filter="url(#filter0_dd_1277_334)">
<rect x="3" width="75" height="75" rx="37.5" fill="#A78BFA" shape-rendering="crispEdges"/>
<path d="M42.5646 53.9286L43.1956 54.3341L42.5646 53.9286ZM43.5946 52.3258L42.9637 51.9204L43.5946 52.3258ZM37.4053 52.3258L36.7743 52.7313H36.7743L37.4053 52.3258ZM38.4353 53.9286L39.0662 53.5231L38.4353 53.9286ZM20.75 34.8751C20.75 35.2893 21.0858 35.6251 21.5 35.6251C21.9142 35.6251 22.25 35.2893 22.25 34.8751H20.75ZM22.9072 44.041C22.7373 43.6632 22.2933 43.4947 21.9155 43.6646C21.5378 43.8345 21.3692 44.2784 21.5391 44.6562L22.9072 44.041ZM32.5002 49.7352L32.4883 50.4851L32.5002 49.7352ZM27.3645 49.0841L27.0972 49.7848L27.0972 49.7848L27.3645 49.0841ZM58.7769 44.3486L59.4609 44.6562L58.7769 44.3486ZM48.4997 49.7352L48.4878 48.9853L48.4997 49.7352ZM53.6355 49.0841L53.9028 49.7848H53.9028L53.6355 49.0841ZM54.9637 21.2894L54.5951 21.9425L54.9637 21.2894ZM58.1001 24.1782L58.7245 23.7627V23.7627L58.1001 24.1782ZM26.0363 21.2894L25.6676 20.6363V20.6363L26.0363 21.2894ZM22.8999 24.1782L22.2755 23.7627L22.8999 24.1782ZM35.5653 50.1173L35.9195 49.4562L35.9195 49.4562L35.5653 50.1173ZM43.1956 54.3341L44.2256 52.7313L42.9637 51.9204L41.9337 53.5231L43.1956 54.3341ZM36.7743 52.7313L37.8043 54.3341L39.0662 53.5231L38.0362 51.9204L36.7743 52.7313ZM41.9337 53.5231C41.635 53.9879 41.0919 54.25 40.5 54.25C39.908 54.25 39.3649 53.9879 39.0662 53.5231L37.8043 54.3341C38.4237 55.2979 39.4862 55.75 40.5 55.75C41.5137 55.75 42.5762 55.2979 43.1956 54.3341L41.9337 53.5231ZM37.65 20.75H43.35V19.25H37.65V20.75ZM58.75 34.8751V36.6251H60.25V34.8751H58.75ZM32.5121 48.9853C30.126 48.9474 28.7504 48.8101 27.6318 48.3833L27.0972 49.7848C28.4878 50.3153 30.1041 50.4472 32.4883 50.4851L32.5121 48.9853ZM21.5391 44.6562C22.59 46.9929 24.5963 48.8307 27.0972 49.7848L27.6318 48.3833C25.4772 47.5613 23.7847 45.9923 22.9072 44.041L21.5391 44.6562ZM58.75 36.6251C58.75 38.6747 58.7495 40.1712 58.6617 41.3573C58.5744 42.5354 58.4038 43.3494 58.0928 44.041L59.4609 44.6562C59.873 43.7397 60.064 42.7305 60.1576 41.4681C60.2505 40.2137 60.25 38.6524 60.25 36.6251H58.75ZM48.5116 50.4851C50.8959 50.4472 52.5122 50.3154 53.9028 49.7848L53.3682 48.3833C52.2496 48.8101 50.874 48.9474 48.4878 48.9853L48.5116 50.4851ZM58.0928 44.041C57.2153 45.9923 55.5228 47.5613 53.3682 48.3833L53.9028 49.7848C56.4037 48.8307 58.41 46.9929 59.4609 44.6562L58.0928 44.041ZM43.35 20.75C46.4731 20.75 48.767 20.7507 50.5671 20.9083C52.3584 21.0652 53.5858 21.3729 54.5951 21.9425L55.3324 20.6363C54.0572 19.9165 52.5875 19.5795 50.6979 19.414C48.8172 19.2493 46.4464 19.25 43.35 19.25V20.75ZM60.25 34.8751C60.25 32.0265 60.2509 29.833 60.071 28.0904C59.8897 26.3338 59.5186 24.9563 58.7245 23.7627L57.4757 24.5936C58.0815 25.5041 58.4103 26.6108 58.579 28.2445C58.7491 29.8922 58.75 31.9951 58.75 34.8751H60.25ZM54.5951 21.9425C55.7746 22.6083 56.7602 23.5183 57.4757 24.5936L58.7245 23.7627C57.8733 22.4833 56.7094 21.4135 55.3324 20.6363L54.5951 21.9425ZM37.65 19.25C34.5536 19.25 32.1828 19.2493 30.3021 19.414C28.4125 19.5795 26.9428 19.9165 25.6676 20.6363L26.4049 21.9425C27.4142 21.3729 28.6416 21.0652 30.4329 20.9083C32.233 20.7507 34.5269 20.75 37.65 20.75V19.25ZM22.25 34.8751C22.25 31.9951 22.2509 29.8922 22.421 28.2445C22.5897 26.6108 22.9185 25.5041 23.5243 24.5936L22.2755 23.7627C21.4814 24.9563 21.1103 26.3338 20.929 28.0904C20.7491 29.833 20.75 32.0265 20.75 34.8751H22.25ZM25.6676 20.6363C24.2906 21.4135 23.1267 22.4833 22.2755 23.7627L23.5243 24.5936C24.2398 23.5183 25.2254 22.6083 26.4049 21.9425L25.6676 20.6363ZM38.0362 51.9204C37.6446 51.3109 37.3225 50.8082 37.0145 50.4189C36.6954 50.0157 36.3603 49.6924 35.9195 49.4562L35.2111 50.7785C35.4119 50.886 35.5974 51.0454 35.8382 51.3497C36.09 51.6679 36.3671 52.0976 36.7743 52.7313L38.0362 51.9204ZM32.4883 50.4851C33.309 50.4981 33.8773 50.5078 34.3219 50.5531C34.7549 50.5973 35.0098 50.6706 35.2111 50.7785L35.9195 49.4562C35.4792 49.2204 35.0094 49.1154 34.4741 49.0609C33.9505 49.0075 33.3071 48.9979 32.5121 48.9853L32.4883 50.4851ZM44.2256 52.7313C44.6328 52.0976 44.91 51.6679 45.1617 51.3497C45.4025 51.0454 45.588 50.886 45.7888 50.7785L45.0805 49.4562C44.6396 49.6924 44.3045 50.0157 43.9855 50.4189C43.6774 50.8082 43.3554 51.3109 42.9637 51.9204L44.2256 52.7313ZM48.4878 48.9853C47.6928 48.9979 47.0494 49.0075 46.5258 49.0609C45.9905 49.1154 45.5207 49.2204 45.0805 49.4562L45.7888 50.7785C45.9901 50.6706 46.245 50.5973 46.678 50.5531C47.1227 50.5078 47.6909 50.4981 48.5116 50.4851L48.4878 48.9853Z" fill="white"/>
<path d="M37.5 27H53.5" stroke="white" stroke-width="1.5" stroke-linecap="round"/>
<path d="M43 32H54" stroke="white" stroke-width="1.5" stroke-linecap="round"/>
</g>
<defs>
<filter id="filter0_dd_1277_334" x="0" y="0" width="81" height="82" filterUnits="userSpaceOnUse" color-interpolation-filters="sRGB">
<feFlood flood-opacity="0" result="BackgroundImageFix"/>
<feColorMatrix in="SourceAlpha" type="matrix" values="0 0 0 0 0 0 0 0 0 0 0 0 0 0 0 0 0 0 127 0" result="hardAlpha"/>
<feMorphology radius="1" operator="erode" in="SourceAlpha" result="effect1_dropShadow_1277_334"/>
<feOffset dy="4"/>
<feGaussianBlur stdDeviation="2"/>
<feComposite in2="hardAlpha" operator="out"/>
<feColorMatrix type="matrix" values="0 0 0 0 0.0470588 0 0 0 0 0.0470588 0 0 0 0 0.0509804 0 0 0 0.05 0"/>
<feBlend mode="normal" in2="BackgroundImageFix" result="effect1_dropShadow_1277_334"/>
<feColorMatrix in="SourceAlpha" type="matrix" values="0 0 0 0 0 0 0 0 0 0 0 0 0 0 0 0 0 0 127 0" result="hardAlpha"/>
<feMorphology radius="1" operator="erode" in="SourceAlpha" result="effect2_dropShadow_1277_334"/>
<feOffset dy="4"/>
<feGaussianBlur stdDeviation="2"/>
<feComposite in2="hardAlpha" operator="out"/>
<feColorMatrix type="matrix" values="0 0 0 0 0.0470588 0 0 0 0 0.0470588 0 0 0 0 0.0509804 0 0 0 0.1 0"/>
<feBlend mode="normal" in2="effect1_dropShadow_1277_334" result="effect2_dropShadow_1277_334"/>
<feBlend mode="normal" in="SourceGraphic" in2="effect2_dropShadow_1277_334" result="shape"/>
</filter>
</defs>
</svg>
