<svg width="29" height="29" viewBox="0 0 29 29" fill="none" xmlns="http://www.w3.org/2000/svg">
<circle cx="14.5" cy="14.1167" r="13.5" stroke="#A78BFA"/>
<path d="M13.9366 18.7834C13.9366 19.1976 14.2724 19.5334 14.6866 19.5334C15.1009 19.5334 15.4366 19.1976 15.4366 18.7834H13.9366ZM19.54 10.6945L20.0703 11.2249C20.3632 10.932 20.3632 10.4571 20.0703 10.1642L19.54 10.6945ZM18.857 8.95087C18.5641 8.65798 18.0892 8.65798 17.7963 8.95087C17.5034 9.24376 17.5034 9.71864 17.7963 10.0115L18.857 8.95087ZM17.7963 11.3775C17.5034 11.6704 17.5034 12.1453 17.7963 12.4382C18.0892 12.7311 18.5641 12.7311 18.857 12.4382L17.7963 11.3775ZM14.6866 18.7834H15.4366V13.9301H14.6866H13.9366V18.7834H14.6866ZM17.9222 10.6945V11.4445H19.54V10.6945V9.94453H17.9222V10.6945ZM19.54 10.6945L20.0703 10.1642L18.857 8.95087L18.3266 9.4812L17.7963 10.0115L19.0096 11.2249L19.54 10.6945ZM19.54 10.6945L19.0096 10.1642L17.7963 11.3775L18.3266 11.9079L18.857 12.4382L20.0703 11.2249L19.54 10.6945ZM14.6866 13.9301H15.4366C15.4366 12.5574 16.5495 11.4445 17.9222 11.4445V10.6945V9.94453C15.721 9.94453 13.9366 11.7289 13.9366 13.9301H14.6866Z" fill="#A78BFA"/>
<path d="M13.9366 18.7834C13.9366 19.1976 14.2724 19.5334 14.6866 19.5334C15.1009 19.5334 15.4366 19.1976 15.4366 18.7834H13.9366ZM9.83331 10.6945L9.30298 10.1642C9.01009 10.4571 9.01009 10.932 9.30298 11.2249L9.83331 10.6945ZM11.577 10.0115C11.8699 9.71864 11.8699 9.24376 11.577 8.95087C11.2841 8.65798 10.8092 8.65798 10.5163 8.95087L11.577 10.0115ZM10.5163 12.4382C10.8092 12.7311 11.2841 12.7311 11.577 12.4382C11.8699 12.1453 11.8699 11.6704 11.577 11.3775L10.5163 12.4382ZM14.6866 18.7834H15.4366V13.9301H14.6866H13.9366V18.7834H14.6866ZM11.4511 10.6945V9.94453H9.83331V10.6945V11.4445H11.4511V10.6945ZM9.83331 10.6945L10.3636 11.2249L11.577 10.0115L11.0466 9.4812L10.5163 8.95087L9.30298 10.1642L9.83331 10.6945ZM9.83331 10.6945L9.30298 11.2249L10.5163 12.4382L11.0466 11.9079L11.577 11.3775L10.3636 10.1642L9.83331 10.6945ZM14.6866 13.9301H15.4366C15.4366 11.7289 13.6523 9.94453 11.4511 9.94453V10.6945V11.4445C12.8238 11.4445 13.9366 12.5574 13.9366 13.9301H14.6866Z" fill="#A78BFA"/>
<path d="M22.7756 13.9301C22.7756 17.7432 22.7756 19.6498 21.591 20.8344C20.4064 22.019 18.4998 22.019 14.6867 22.019C10.8735 22.019 8.96696 22.019 7.78237 20.8344C6.59778 19.6498 6.59778 17.7432 6.59778 13.9301C6.59778 10.1169 6.59778 8.21037 7.78237 7.02578C8.96696 5.84119 10.8735 5.84119 14.6867 5.84119C18.4998 5.84119 20.4064 5.84119 21.591 7.02578C22.3786 7.81342 22.6425 8.92026 22.731 10.6945" stroke="#A78BFA" stroke-width="1.5" stroke-linecap="round"/>
</svg>
