<svg width="39" height="41" viewBox="0 0 39 41" fill="none" xmlns="http://www.w3.org/2000/svg">
<g clip-path="url(#clip0_1698_661)">
<path d="M19.5 13.6666V20.5L23.5625 24.7708" stroke="#6B7280" stroke-width="1.5" stroke-linecap="round" stroke-linejoin="round"/>
<path d="M9.10687 9.57389L8.56345 9.05698L9.10687 9.57389ZM7.049 11.7373L6.29901 11.7409C6.30098 12.1521 6.63378 12.4851 7.04504 12.4873L7.049 11.7373ZM11.1816 12.5091C11.5958 12.5113 11.9333 12.1773 11.9355 11.7631C11.9377 11.3489 11.6037 11.0113 11.1895 11.0092L11.1816 12.5091ZM7.77821 7.38505C7.77623 6.97084 7.43884 6.63666 7.02463 6.63864C6.61042 6.64062 6.27624 6.97801 6.27822 7.39222L7.77821 7.38505ZM5.625 20.5C5.625 20.0858 5.28921 19.75 4.875 19.75C4.46079 19.75 4.125 20.0858 4.125 20.5H5.625ZM27.2022 34.4589C27.5561 34.2437 27.6685 33.7823 27.4533 33.4284C27.2381 33.0745 26.7767 32.9621 26.4228 33.1773L27.2022 34.4589ZM31.5113 27.8259C31.3117 28.1888 31.444 28.6449 31.8069 28.8446C32.1698 29.0443 32.6258 28.912 32.8255 28.5491L31.5113 27.8259ZM8.66968 9.05428C8.38271 9.35298 8.39221 9.82776 8.69091 10.1147C8.98961 10.4017 9.46439 10.3922 9.75136 10.0935L8.66968 9.05428ZM30.3329 9.16624C24.3025 2.82662 14.547 2.76659 8.56345 9.05698L9.65029 10.0908C15.032 4.43306 23.7963 4.47087 29.2461 10.2001L30.3329 9.16624ZM8.56345 9.05698L6.50558 11.2204L7.59242 12.2542L9.65029 10.0908L8.56345 9.05698ZM7.04504 12.4873L11.1816 12.5091L11.1895 11.0092L7.05297 10.9873L7.04504 12.4873ZM7.79899 11.7337L7.77821 7.38505L6.27822 7.39222L6.29901 11.7409L7.79899 11.7337ZM19.5 5.875C27.128 5.875 33.375 12.387 33.375 20.5H34.875C34.875 11.6302 28.0263 4.375 19.5 4.375V5.875ZM19.5 35.125C11.872 35.125 5.625 28.6129 5.625 20.5H4.125C4.125 29.3698 10.9737 36.625 19.5 36.625V35.125ZM26.4228 33.1773C24.3843 34.417 22.0209 35.125 19.5 35.125V36.625C22.3068 36.625 24.9384 35.8356 27.2022 34.4589L26.4228 33.1773ZM33.375 20.5C33.375 23.1723 32.6956 25.6737 31.5113 27.8259L32.8255 28.5491C34.13 26.1784 34.875 23.4286 34.875 20.5H33.375ZM9.75136 10.0935C12.2623 7.47994 15.7059 5.875 19.5 5.875V4.375C15.2697 4.375 11.4435 6.16709 8.66968 9.05428L9.75136 10.0935Z" fill="#6B7280"/>
</g>
<defs>
<clipPath id="clip0_1698_661">
<rect width="39" height="41" fill="white"/>
</clipPath>
</defs>
</svg>
