<svg width="24" height="24" viewBox="0 0 24 24" fill="none" xmlns="http://www.w3.org/2000/svg">
<path d="M24 12C24 5.37258 18.6274 0 12 0C5.37258 0 0 5.37258 0 12C0 18.6274 5.37258 24 12 24C18.6274 24 24 18.6274 24 12Z" fill="white"/>
<path d="M15 6.98072L13.9589 6L8.28843 11.3449C8.19703 11.4306 8.12449 11.5324 8.07498 11.6446C8.02548 11.7568 8 11.8771 8 11.9986C8 12.1201 8.02548 12.2404 8.07498 12.3526C8.12449 12.4648 8.19703 12.5666 8.28843 12.6523L13.9589 18L14.999 17.0193L9.67686 12L15 6.98072Z" fill="#9CA3AF"/>
</svg>
