<svg width="16" height="17" viewBox="0 0 16 17" fill="none" xmlns="http://www.w3.org/2000/svg">
<path d="M5.93283 10.1348L5.38903 10.6514L5.93283 10.1348ZM5.6292 9.81517L6.17299 9.29865L6.17299 9.29865L5.6292 9.81517ZM4.01809 9.59158L4.39223 10.2416L4.39223 10.2416L4.01809 9.59158ZM2.74442 10.3247L3.11856 10.9747L2.74442 10.3247ZM2.38552 12.6223L1.84173 13.1388L1.84173 13.1388L2.38552 12.6223ZM3.33256 13.6194L3.87635 13.1029L3.33256 13.6194ZM4.21579 14.0921L4.14212 14.8385L4.21579 14.0921ZM10.7897 11.1002L10.2459 10.5836L10.7897 11.1002ZM13.2491 4.72046C13.2713 4.30684 13.6246 3.98953 14.0382 4.01173C14.4519 4.03394 14.7692 4.38724 14.747 4.80085L13.2491 4.72046ZM9.87284 5.98675L9.32904 6.50326L9.87284 5.98675ZM9.68163 5.78544L9.13783 6.30196L9.13783 6.30196L9.68163 5.78544ZM9.57714 3.9121L8.96475 3.47912L9.57714 3.9121ZM10.4178 2.72311L11.0302 3.15609L11.0302 3.15609L10.4178 2.72311ZM13.0361 2.00594C13.3214 2.30627 13.3092 2.78099 13.0089 3.06625C12.7085 3.35152 12.2338 3.33931 11.9485 3.03898L13.0361 2.00594ZM8.62456 8.82063L8.08076 8.30412L8.62456 8.82063ZM9.02362 13.5366C8.6729 13.757 8.20993 13.6513 7.98954 13.3006C7.76914 12.9499 7.87479 12.4869 8.2255 12.2665L9.02362 13.5366ZM5.87345 13.2443C6.27887 13.1594 6.67634 13.4192 6.76124 13.8247C6.84613 14.2301 6.58629 14.6276 6.18086 14.7125L5.87345 13.2443ZM5.38903 10.6514L5.0854 10.3317L6.17299 9.29865L6.47662 9.61832L5.38903 10.6514ZM4.39223 10.2416L3.11856 10.9747L2.37028 9.67467L3.64395 8.94156L4.39223 10.2416ZM2.92932 12.1058L3.87635 13.1029L2.78876 14.1359L1.84173 13.1388L2.92932 12.1058ZM10.2459 10.5836C12.7872 7.90819 13.1981 5.67044 13.2491 4.72046L14.747 4.80085C14.6778 6.09024 14.1318 8.67061 11.3335 11.6167L10.2459 10.5836ZM9.32904 6.50326L9.13783 6.30196L10.2254 5.26893L10.4166 5.47023L9.32904 6.50326ZM8.96475 3.47912L9.80541 2.29013L11.0302 3.15609L10.1895 4.34508L8.96475 3.47912ZM9.87284 5.98675C10.4166 5.47023 10.4173 5.47096 10.418 5.47169C10.4182 5.47194 10.4189 5.47268 10.4194 5.47318C10.4204 5.47418 10.4213 5.4752 10.4223 5.47623C10.4242 5.47831 10.4262 5.48045 10.4282 5.48266C10.4322 5.48709 10.4364 5.4918 10.4408 5.4968C10.4495 5.50681 10.4588 5.51798 10.4686 5.53035C10.4881 5.5551 10.5096 5.58465 10.5317 5.61921C10.5761 5.68855 10.6226 5.77733 10.6614 5.88644C10.7407 6.10919 10.7796 6.39289 10.7295 6.73465C10.6317 7.40216 10.2032 8.24765 9.16835 9.33715L8.08076 8.30412C9.01592 7.31958 9.21154 6.74812 9.24537 6.5172C9.26112 6.40975 9.24273 6.37386 9.24823 6.38932C9.25018 6.39479 9.25566 6.408 9.26826 6.42769C9.27449 6.43742 9.28238 6.44863 9.29235 6.46122C9.29734 6.46752 9.30285 6.47418 9.30894 6.48118C9.31198 6.48468 9.31518 6.48827 9.31853 6.49195C9.3202 6.49379 9.32191 6.49566 9.32366 6.49754C9.32454 6.49848 9.32543 6.49943 9.32632 6.50039C9.32677 6.50086 9.32745 6.50158 9.32767 6.50182C9.32836 6.50254 9.32904 6.50326 9.87284 5.98675ZM9.16835 9.33715C8.138 10.4219 7.32434 10.8879 6.66017 10.9958C6.31656 11.0516 6.02797 11.0083 5.80119 10.9188C5.69088 10.8753 5.60211 10.8236 5.5338 10.7752C5.49973 10.751 5.47082 10.7277 5.44683 10.7067C5.43483 10.6962 5.42404 10.6862 5.41443 10.6769C5.40962 10.6723 5.40511 10.6678 5.40088 10.6635C5.39876 10.6614 5.39672 10.6593 5.39474 10.6573C5.39376 10.6563 5.39279 10.6553 5.39184 10.6543C5.39136 10.6538 5.39066 10.6531 5.39042 10.6528C5.38973 10.6521 5.38903 10.6514 5.93283 10.1348C6.47662 9.61832 6.47593 9.6176 6.47525 9.61688C6.47502 9.61664 6.47434 9.61593 6.47388 9.61545C6.47298 9.61451 6.47207 9.61357 6.47118 9.61265C6.46938 9.6108 6.4676 9.60898 6.46584 9.60721C6.46232 9.60366 6.45887 9.60026 6.45549 9.597C6.44872 9.59048 6.44223 9.58451 6.436 9.57905C6.42354 9.56812 6.41206 9.55912 6.40158 9.55168C6.38042 9.53668 6.36344 9.52814 6.35156 9.52346C6.32167 9.51167 6.33664 9.52869 6.41971 9.5152C6.60891 9.48447 7.14111 9.29339 8.08076 8.30412L9.16835 9.33715ZM9.80541 2.29013C10.5647 1.21625 12.1015 1.0219 13.0361 2.00594L11.9485 3.03898C11.7172 2.79543 11.2882 2.79115 11.0302 3.15609L9.80541 2.29013ZM3.87635 13.1029C4.03499 13.2699 4.17751 13.3347 4.28946 13.3457L4.14212 14.8385C3.56686 14.7817 3.11172 14.4759 2.78876 14.1359L3.87635 13.1029ZM9.13783 6.30196C8.40578 5.53124 8.3595 4.33516 8.96475 3.47912L10.1895 4.34508C9.97287 4.65152 10.0154 5.04782 10.2254 5.26893L9.13783 6.30196ZM3.11856 10.9747C2.70667 11.2118 2.63615 11.7972 2.92932 12.1058L1.84173 13.1388C0.856379 12.1014 1.14632 10.3792 2.37028 9.67467L3.11856 10.9747ZM5.0854 10.3317C4.90983 10.1468 4.6364 10.1011 4.39223 10.2416L3.64395 8.94156C4.47389 8.46386 5.50909 8.59969 6.17299 9.29865L5.0854 10.3317ZM8.2255 12.2665C8.86278 11.8661 9.5447 11.3219 10.2459 10.5836L11.3335 11.6167C10.5506 12.441 9.77227 13.0661 9.02362 13.5366L8.2255 12.2665ZM4.28946 13.3457C4.63228 13.3796 5.18299 13.3889 5.87345 13.2443L6.18086 14.7125C5.32014 14.8927 4.61417 14.8851 4.14212 14.8385L4.28946 13.3457Z" fill="#60A5FA"/>
</svg>
