<svg width="28" height="28" viewBox="0 0 28 28" fill="none" xmlns="http://www.w3.org/2000/svg">
<circle cx="14" cy="14" r="14" fill="#60A5FA"/>
<path d="M7.46666 17.0017C6.86236 15.4581 6.53333 13.8146 6.53333 12.2671C6.53333 8.06947 9.87627 4.66666 14 4.66666C18.1237 4.66666 21.4667 8.06947 21.4667 12.2671C21.4667 16.4318 19.0836 21.2916 15.3654 23.0295C14.4986 23.4346 13.5014 23.4346 12.6346 23.0295C11.4471 22.4744 10.3957 21.6009 9.51475 20.5333" stroke="#F9FAFB" stroke-width="1.5" stroke-linecap="round"/>
<path d="M15.9832 14.1099L17.2666 15.4M15.9832 14.1099C16.4879 13.6035 16.8 12.9049 16.8 12.1333C16.8 10.5869 15.5463 9.33334 14 9.33334C12.4536 9.33334 11.2 10.5869 11.2 12.1333C11.2 13.6797 12.4536 14.9333 14 14.9333C14.7748 14.9333 15.4762 14.6186 15.9832 14.1099Z" stroke="white" stroke-width="1.5" stroke-linecap="round"/>
</svg>
