<svg width="38" height="38" viewBox="0 0 38 38" fill="none" xmlns="http://www.w3.org/2000/svg">
<circle cx="19" cy="19" r="19" fill="#60A5FA"/>
<path d="M24.4975 25.4851L27.6281 16.0937C28.8764 12.3487 29.5006 10.4762 28.5122 9.48782C27.5237 8.49939 25.6511 9.12356 21.906 10.3719L12.5748 13.4822C10.4929 14.1761 9.45203 14.5231 9.13608 15.2864C9.06182 15.4658 9.01692 15.656 9.00311 15.8496C8.94433 16.6737 9.72018 17.4495 11.2719 19.0011L11.5545 19.2837C11.8092 19.5384 11.9366 19.6658 12.0328 19.8075C12.2227 20.0871 12.3305 20.4143 12.3439 20.7519C12.3508 20.9232 12.324 21.1013 12.2706 21.4574C12.0749 22.7612 11.977 23.4131 12.0923 23.9147C12.3221 24.9146 13.096 25.6995 14.0926 25.9433C14.5925 26.0656 15.2458 25.977 16.5522 25.7997L16.6236 25.79C16.9919 25.74 17.1761 25.715 17.3529 25.7257C17.6738 25.745 17.9838 25.8496 18.251 26.0285C18.3981 26.1271 18.5295 26.2585 18.7923 26.5213L19.0436 26.7725C20.5539 28.2828 21.309 29.0379 22.1101 28.9985C22.3309 28.9877 22.5479 28.9365 22.7503 28.8474C23.4844 28.5244 23.8221 27.5113 24.4975 25.4851Z" stroke="white" stroke-width="1.5"/>
<path opacity="0.5" d="M13 25L28 10" stroke="white" stroke-width="1.5" stroke-linecap="round"/>
</svg>
