<svg width="29" height="29" viewBox="0 0 29 29" fill="none" xmlns="http://www.w3.org/2000/svg">
<path d="M8.71741 14.4211C8.71741 15.3666 9.48388 16.133 10.4294 16.133C11.3749 16.133 12.1413 15.3666 12.1413 14.4211C12.1413 13.4756 11.3749 12.7091 10.4294 12.7091" stroke="#A78BFA" stroke-width="1.5" stroke-linecap="round"/>
<path d="M15.5652 10.6547L12.1413 13.0514" stroke="#A78BFA" stroke-width="1.5" stroke-linecap="round"/>
<path d="M15.5652 18.1873L12.1413 15.7905" stroke="#A78BFA" stroke-width="1.5" stroke-linecap="round"/>
<path d="M17.2772 20.5841C18.2227 20.5841 18.9892 19.8176 18.9892 18.8721C18.9892 17.9266 18.2227 17.1602 17.2772 17.1602C16.3317 17.1602 15.5652 17.9266 15.5652 18.8721" stroke="#A78BFA" stroke-width="1.5" stroke-linecap="round"/>
<path d="M18.7598 10.8259C18.287 11.6447 17.24 11.9253 16.4212 11.4525C15.6024 10.9798 15.3218 9.93277 15.7946 9.11395C16.2673 8.29514 17.3143 8.01459 18.1332 8.48734" stroke="#A78BFA" stroke-width="1.5" stroke-linecap="round"/>
<circle cx="14.5" cy="14.1167" r="13.5" stroke="#A78BFA"/>
</svg>
